<svg width="24" height="24" viewBox="0 0 24 24" fill="none" xmlns="http://www.w3.org/2000/svg">
<path d="M14 17C14 17.3956 14.1173 17.7822 14.3371 18.1111C14.5568 18.44 14.8692 18.6964 15.2346 18.8478C15.6001 18.9991 16.0022 19.0387 16.3902 18.9616C16.7781 18.8844 17.1345 18.6939 17.4142 18.4142C17.6939 18.1345 17.8844 17.7781 17.9616 17.3902C18.0387 17.0022 17.9991 16.6001 17.8478 16.2346C17.6964 15.8692 17.44 15.5568 17.1111 15.3371C16.7822 15.1173 16.3956 15 16 15C15.4696 15 14.9609 15.2107 14.5858 15.5858C14.2107 15.9609 14 16.4696 14 17ZM6 15C6.39556 15 6.78224 15.1173 7.11114 15.3371C7.44004 15.5568 7.69638 15.8692 7.84776 16.2346C7.99913 16.6001 8.03874 17.0022 7.96157 17.3902C7.8844 17.7781 7.69392 18.1345 7.41421 18.4142C7.13451 18.6939 6.77814 18.8844 6.39018 18.9616C6.00222 19.0387 5.60008 18.9991 5.23463 18.8478C4.86918 18.6964 4.55682 18.44 4.33706 18.1111C4.1173 17.7822 4 17.3956 4 17C4 16.4696 4.21071 15.9609 4.58579 15.5858C4.96086 15.2107 5.46957 15 6 15Z" stroke="white" stroke-width="1.5" stroke-linecap="round" stroke-linejoin="round"/>
<path d="M9 6V16C9 16.5523 9.44772 17 10 17H13C13.5523 17 13.9801 16.5258 14.2448 16.0411C14.3354 15.8753 14.4498 15.7218 14.5858 15.5858C14.9609 15.2107 15.4696 15 16 15C16.5304 15 17.0391 15.2107 17.4142 15.5858C17.5502 15.7218 17.6646 15.8753 17.7552 16.0411C18.0199 16.5258 18.4477 17 19 17H20C20.2652 17 20.5196 16.8946 20.7071 16.7071C20.8946 16.5196 21 16.2652 21 16V6C21 5.73478 20.8946 5.48043 20.7071 5.29289C20.5196 5.10536 20.2652 5 20 5H10C9.73478 5 9.48043 5.10536 9.29289 5.29289C9.10536 5.48043 9 5.73478 9 6ZM3.17 10.75L4.7 8.45C4.79152 8.31103 4.91627 8.19709 5.06295 8.11851C5.20963 8.03993 5.3736 7.9992 5.54 8H8C8.55228 8 9 8.44772 9 9V16.5C9 16.7761 8.77614 17 8.5 17V17C8.22386 17 8.00616 16.7727 7.93783 16.5052C7.84972 16.1602 7.67027 15.8418 7.41421 15.5858C7.03914 15.2107 6.53043 15 6 15C5.46957 15 4.96086 15.2107 4.58579 15.5858C4.32973 15.8418 4.15028 16.1602 4.06217 16.5052C3.99384 16.7727 3.77614 17 3.5 17V17C3.22386 17 3 16.7761 3 16.5V11.3C3.00153 11.104 3.06065 10.9127 3.17 10.75Z" stroke="white" stroke-width="1.5" stroke-linecap="round" stroke-linejoin="round"/>
</svg>
