<svg width="18" height="20" viewBox="0 0 18 20" fill="none" xmlns="http://www.w3.org/2000/svg">
<rect x="0.917348" y="0.529627" width="10.8202" height="14.6848" rx="1.25" transform="matrix(0.965583 -0.260096 0.257548 0.966266 -0.104832 3.46081)" fill="#990100" stroke="white" stroke-width="1.5"/>
<rect x="6.4342" y="4.55957" width="10.8158" height="14.6905" rx="1.25" fill="#990100" stroke="white" stroke-width="1.5"/>
<path d="M15.1579 11.4286C15.1579 11.0533 15.0721 10.6818 14.9055 10.3352C14.7389 9.98853 14.4946 9.67356 14.1867 9.40825C13.8788 9.14294 13.5133 8.93248 13.111 8.7889C12.7087 8.64531 12.2775 8.57141 11.8421 8.57141C11.4067 8.57141 10.9755 8.64531 10.5732 8.7889C10.1709 8.93248 9.80538 9.14294 9.49748 9.40825C9.18958 9.67356 8.94534 9.98853 8.77871 10.3352C8.61207 10.6818 8.52631 11.0533 8.52631 11.4286L11.8421 11.4286H15.1579Z" fill="white"/>
<path d="M8.52632 12.381C8.52632 12.7562 8.61208 13.1278 8.77872 13.4744C8.94535 13.821 9.18959 14.136 9.49749 14.4013C9.80539 14.6666 10.1709 14.8771 10.5732 15.0207C10.9755 15.1643 11.4067 15.2382 11.8421 15.2382C12.2775 15.2382 12.7087 15.1643 13.111 15.0207C13.5133 14.8771 13.8788 14.6666 14.1867 14.4013C14.4946 14.136 14.7389 13.821 14.9055 13.4744C15.0721 13.1278 15.1579 12.7562 15.1579 12.381L11.8421 12.381L8.52632 12.381Z" fill="white"/>
<ellipse cx="11.8421" cy="11.9048" rx="1.42105" ry="1.42857" fill="#990100"/>
<path d="M12.7895 11.9048C12.7895 12.4308 12.3653 12.8572 11.8421 12.8572C11.3189 12.8572 10.8947 12.4308 10.8947 11.9048C10.8947 11.3788 11.3189 10.9524 11.8421 10.9524C12.3653 10.9524 12.7895 11.3788 12.7895 11.9048Z" fill="white"/>
<path d="M12.3158 11.9048C12.3158 12.1678 12.1037 12.381 11.8421 12.381C11.5805 12.381 11.3684 12.1678 11.3684 11.9048C11.3684 11.6418 11.5805 11.4286 11.8421 11.4286C12.1037 11.4286 12.3158 11.6418 12.3158 11.9048Z" fill="#990100"/>
</svg>
