<svg width="24" height="24" viewBox="0 0 24 24" fill="none" xmlns="http://www.w3.org/2000/svg">
<path d="M14 10H11.5C11.1022 10 10.7206 10.1317 10.4393 10.3661C10.158 10.6005 10 10.9185 10 11.25V11.25C10 11.5815 10.158 11.8995 10.4393 12.1339C10.7206 12.3683 11.1022 12.5 11.5 12.5H12.5C12.8978 12.5 13.2794 12.6317 13.5607 12.8661C13.842 13.1005 14 13.4185 14 13.75V13.75C14 14.0815 13.842 14.3995 13.5607 14.6339C13.2794 14.8683 12.8978 15 12.5 15H10" stroke="white" stroke-width="1.25" stroke-linecap="round" stroke-linejoin="round"/>
<path d="M12 16.2143V15.2857M21 19H3V6H21V19ZM21 6H17C17 6.98509 17.4214 7.92983 18.1716 8.6264C18.9217 9.32296 19.9391 9.71429 21 9.71429V6ZM3 9.71429C4.06087 9.71429 5.07828 9.32296 5.82843 8.6264C6.57857 7.92983 7 6.98509 7 6H3V9.71429ZM21 15.2857C19.9391 15.2857 18.9217 15.677 18.1716 16.3736C17.4214 17.0702 17 18.0149 17 19H21V15.2857ZM3 19H7C7 18.0149 6.57857 17.0702 5.82843 16.3736C5.07828 15.677 4.06087 15.2857 3 15.2857V15.2857V19ZM12 9.71429V8.78571V9.71429Z" stroke="white" stroke-linecap="round" stroke-linejoin="round"/>
</svg>
