<svg width="24" height="24" viewBox="0 0 24 24" fill="none" xmlns="http://www.w3.org/2000/svg">
<rect x="6.25" y="7.25" width="11.5" height="11.5" rx="1.75" stroke="white" stroke-width="1.5"/>
<path d="M10.75 11.75C10.75 12.4404 10.1904 13 9.5 13C8.80964 13 8.25 12.4404 8.25 11.75C8.25 11.0596 8.80964 10.5 9.5 10.5C10.1904 10.5 10.75 11.0596 10.75 11.75Z" fill="white"/>
<path d="M14 6.5C14 5.96957 13.7893 5.46086 13.4142 5.08579C13.0391 4.71071 12.5304 4.5 12 4.5C11.4696 4.5 10.9609 4.71071 10.5858 5.08579C10.2107 5.46086 10 5.96957 10 6.5" stroke="white" stroke-width="1.5"/>
<path d="M18.5 14C19.0304 14 19.5391 13.7893 19.9142 13.4142C20.2893 13.0391 20.5 12.5304 20.5 12C20.5 11.4696 20.2893 10.9609 19.9142 10.5858C19.5391 10.2107 19.0304 10 18.5 10" stroke="white" stroke-width="1.5"/>
<path d="M5.5 10C4.96957 10 4.46086 10.2107 4.08579 10.5858C3.71071 10.9609 3.5 11.4696 3.5 12C3.5 12.5304 3.71071 13.0391 4.08579 13.4142C4.46086 13.7893 4.96957 14 5.5 14" stroke="white" stroke-width="1.5"/>
<path d="M15.75 11.75C15.75 12.4404 15.1904 13 14.5 13C13.8096 13 13.25 12.4404 13.25 11.75C13.25 11.0596 13.8096 10.5 14.5 10.5C15.1904 10.5 15.75 11.0596 15.75 11.75Z" fill="white"/>
<path d="M8.5 15.75C8.5 15.3358 8.83579 15 9.25 15H14.75C15.1642 15 15.5 15.3358 15.5 15.75V15.75C15.5 16.1642 15.1642 16.5 14.75 16.5H9.25C8.83579 16.5 8.5 16.1642 8.5 15.75V15.75Z" fill="white"/>
</svg>
