<svg width="20" height="19" viewBox="0 0 20 19" fill="none" xmlns="http://www.w3.org/2000/svg">
<path d="M4.49996 5.00003C5.96131 3.53868 7.5935 2.41902 8.69749 1.74091C9.5021 1.24668 10.4978 1.24668 11.3024 1.74091C12.4064 2.41902 14.0386 3.53868 15.5 5.00003C18.6683 8.16841 18.5 10 18.5 13C18.5 14.4099 18.3895 15.5988 18.2725 16.4632C18.1493 17.3726 17.3561 18 16.4384 18H15C13.8954 18 13 17.1046 13 16V14C13 13.2044 12.6839 12.4413 12.1213 11.8787C11.5587 11.3161 10.7956 11 9.99997 11C9.20432 11 8.44125 11.3161 7.87864 11.8787C7.31603 12.4413 6.99996 13.2044 6.99996 14V16C6.99996 17.1046 6.10453 18 4.99996 18H3.56152C2.64378 18 1.85061 17.3726 1.72745 16.4632C1.61039 15.5988 1.49997 14.4098 1.49997 13C1.49997 10 1.33157 8.16842 4.49996 5.00003Z" stroke="white" stroke-width="1.5" stroke-linecap="round" stroke-linejoin="round"/>
</svg>
