<svg width="32" height="32" viewBox="0 0 32 32" fill="none" xmlns="http://www.w3.org/2000/svg">
<circle cx="16" cy="16" r="12" fill="white"/>
<circle cx="16" cy="12" r="4" fill="#E8E8E8"/>
<path d="M8 24C10.6667 21.7361 17.6 18.5667 24 24C21.3333 26.2639 14.4 29.4333 8 24Z" fill="#E8E8E8" stroke="#E8E8E8"/>
<path d="M24 24.9364C24 20.8942 19.3333 20 16 20C12.6667 20 8 20.8942 8 24.9364M28 16C28 22.6274 22.6274 28 16 28C9.37258 28 4 22.6274 4 16C4 9.37258 9.37258 4 16 4C22.6274 4 28 9.37258 28 16ZM20 12C20 14.2091 18.2091 16 16 16C13.7909 16 12 14.2091 12 12C12 9.79086 13.7909 8 16 8C18.2091 8 20 9.79086 20 12Z" stroke="#E8E8E8" stroke-width="1.5" stroke-linecap="round" stroke-linejoin="round"/>
</svg>
